<svg xmlns="http://www.w3.org/2000/svg" viewBox="0 0 600 600" role="img" aria-label="Product image placeholder">
  <defs>
    <linearGradient id="bg" x1="0" x2="1" y1="0" y2="1">
      <stop offset="0" stop-color="#1f2937"/>
      <stop offset="0.55" stop-color="#0f766e"/>
      <stop offset="1" stop-color="#111827"/>
    </linearGradient>
    <linearGradient id="chip" x1="0" x2="1" y1="0" y2="1">
      <stop offset="0" stop-color="#38bdf8"/>
      <stop offset="1" stop-color="#22c55e"/>
    </linearGradient>
  </defs>
  <rect width="600" height="600" fill="url(#bg)"/>
  <rect x="152" y="178" width="296" height="244" rx="30" fill="#0b1220" opacity="0.82"/>
  <rect x="210" y="236" width="180" height="128" rx="18" fill="url(#chip)"/>
  <rect x="244" y="270" width="112" height="60" rx="10" fill="#08111f" opacity="0.72"/>
  <g fill="#67e8f9" opacity="0.78">
    <rect x="126" y="220" width="42" height="12" rx="6"/>
    <rect x="126" y="278" width="42" height="12" rx="6"/>
    <rect x="126" y="336" width="42" height="12" rx="6"/>
    <rect x="432" y="220" width="42" height="12" rx="6"/>
    <rect x="432" y="278" width="42" height="12" rx="6"/>
    <rect x="432" y="336" width="42" height="12" rx="6"/>
    <rect x="220" y="152" width="12" height="42" rx="6"/>
    <rect x="294" y="152" width="12" height="42" rx="6"/>
    <rect x="368" y="152" width="12" height="42" rx="6"/>
    <rect x="220" y="406" width="12" height="42" rx="6"/>
    <rect x="294" y="406" width="12" height="42" rx="6"/>
    <rect x="368" y="406" width="12" height="42" rx="6"/>
  </g>
  <circle cx="300" cy="300" r="220" fill="none" stroke="#e0f2fe" stroke-opacity="0.12" stroke-width="2"/>
</svg>
