<svg xmlns="http://www.w3.org/2000/svg" viewBox="0 0 800 600" role="img" aria-label="Category image placeholder">
  <defs>
    <linearGradient id="bg" x1="0" x2="1" y1="0" y2="1">
      <stop offset="0" stop-color="#172554"/>
      <stop offset="0.55" stop-color="#155e75"/>
      <stop offset="1" stop-color="#111827"/>
    </linearGradient>
    <linearGradient id="card" x1="0" x2="1" y1="0" y2="1">
      <stop offset="0" stop-color="#93c5fd"/>
      <stop offset="1" stop-color="#2dd4bf"/>
    </linearGradient>
  </defs>
  <rect width="800" height="600" fill="url(#bg)"/>
  <g opacity="0.92">
    <rect x="158" y="150" width="200" height="140" rx="20" fill="url(#card)"/>
    <rect x="442" y="150" width="200" height="140" rx="20" fill="url(#card)"/>
    <rect x="158" y="330" width="200" height="140" rx="20" fill="url(#card)"/>
    <rect x="442" y="330" width="200" height="140" rx="20" fill="url(#card)"/>
  </g>
  <g fill="#08111f" opacity="0.68">
    <rect x="204" y="202" width="108" height="36" rx="8"/>
    <rect x="488" y="202" width="108" height="36" rx="8"/>
    <rect x="204" y="382" width="108" height="36" rx="8"/>
    <rect x="488" y="382" width="108" height="36" rx="8"/>
  </g>
  <path d="M0 468c122-62 225-48 332 0s230 55 468-28v160H0z" fill="#020617" opacity="0.24"/>
</svg>
